<svg id="Layer_1" data-name="Layer 1" xmlns="http://www.w3.org/2000/svg" viewBox="0 0 24 24"><defs><style>.cls-1{fill:#7e8937;}.cls-2{fill:#c6c86b;}</style></defs><path class="cls-1" d="M1.58,2.75A1.22,1.22,0,0,1,.35,1.55,1.22,1.22,0,0,1,1.58.35,1.21,1.21,0,0,1,2.8,1.55,1.21,1.21,0,0,1,1.58,2.75Zm0-2.1a.92.92,0,0,0-.93.9.91.91,0,0,0,.93.89.91.91,0,0,0,.92-.89A.91.91,0,0,0,1.58.65Z"/><path class="cls-1" d="M8.66,2.75a1.22,1.22,0,0,1-1.23-1.2,1.23,1.23,0,0,1,2.45,0A1.21,1.21,0,0,1,8.66,2.75Zm0-2.1a.92.92,0,0,0-.93.9.93.93,0,0,0,1.85,0A.91.91,0,0,0,8.66.65Z"/><rect class="cls-2" x="2.65" y="1.39" width="4.93" height="0.31"/><path class="cls-1" d="M5.24,9.62H4.61a.44.44,0,0,1-.44-.43l0-.85L2.87,6,4.09,3.69V2.93a.49.49,0,0,1,.15-.35.54.54,0,0,1,.35-.15h.49V.61A.15.15,0,0,1,5.23.46a.15.15,0,0,1,.15.15V2.73h-.8a.2.2,0,0,0-.14.06.19.19,0,0,0-.05.13v.84L3.22,6,4.45,8.3l0,.89a.14.14,0,0,0,.14.13h.63a.14.14,0,0,1,.15.15A.15.15,0,0,1,5.24,9.62Z"/><path class="cls-1" d="M5.21,11.54a.15.15,0,0,1-.15-.15V9.32h.78A.13.13,0,0,0,6,9.19l0-1L7.24,6,6.05,3.77l0-.84a.2.2,0,0,0-.2-.19h-.8V.61A.15.15,0,0,1,5.23.46a.15.15,0,0,1,.15.15V2.43h.5a.51.51,0,0,1,.49.5v.76L7.58,6,6.31,8.34l0,.85a.45.45,0,0,1-.45.43H5.36v1.77A.15.15,0,0,1,5.21,11.54Z"/><path class="cls-2" d="M1.47,13H.86a.4.4,0,0,1-.4-.39V10.8a.39.39,0,0,1,.4-.39H8.67a.16.16,0,0,1,.16.15.15.15,0,0,1-.16.15H4L1.75,12.9A.39.39,0,0,1,1.47,13Zm-.61-2.3a.1.1,0,0,0-.1.09v1.82a.09.09,0,0,0,.1.08h.61a.09.09,0,0,0,.07,0l2-2Z"/><path class="cls-2" d="M6.21,3.88h-2a.15.15,0,0,1-.16-.15.16.16,0,0,1,.16-.15h2a.15.15,0,0,1,.15.15A.15.15,0,0,1,6.21,3.88Z"/><path class="cls-2" d="M6.16,8.45H4.29a.15.15,0,1,1,0-.3H6.16a.15.15,0,0,1,0,.3Z"/><path class="cls-2" d="M3.87,6.19H3A.15.15,0,0,1,2.89,6,.15.15,0,0,1,3,5.89h.83A.15.15,0,0,1,4,6,.15.15,0,0,1,3.87,6.19Z"/><path class="cls-1" d="M11.47,13a.16.16,0,0,1-.15-.16V6.19H4.78A.15.15,0,0,1,4.63,6a.15.15,0,0,1,.15-.15h6.84v6.93A.16.16,0,0,1,11.47,13Z"/><path class="cls-1" d="M18.21,18.64H7.56a.51.51,0,0,1-.51-.51v-5a.51.51,0,0,1,.51-.52H18.21a.51.51,0,0,1,.51.52v5A.51.51,0,0,1,18.21,18.64ZM7.56,13a.21.21,0,0,0-.21.21v5a.21.21,0,0,0,.21.2H18.21a.21.21,0,0,0,.21-.2v-5a.21.21,0,0,0-.21-.21Z"/><path class="cls-2" d="M17.59,15.79H8.17A.16.16,0,0,1,8,15.64a.15.15,0,0,1,.16-.15h9.42a.15.15,0,0,1,.15.15A.15.15,0,0,1,17.59,15.79Z"/><path class="cls-2" d="M10,17.68a.15.15,0,0,1-.15-.15V13.75a.16.16,0,0,1,.15-.16.16.16,0,0,1,.16.16v3.78A.15.15,0,0,1,10,17.68Z"/><path class="cls-2" d="M12.88,17.68a.15.15,0,0,1-.16-.15V13.75a.16.16,0,0,1,.16-.16.16.16,0,0,1,.15.16v3.78A.15.15,0,0,1,12.88,17.68Z"/><path class="cls-2" d="M15.8,17.68a.15.15,0,0,1-.15-.15V13.75a.16.16,0,0,1,.15-.16.15.15,0,0,1,.15.16v3.78A.14.14,0,0,1,15.8,17.68Z"/><path class="cls-1" d="M14.22,13a.16.16,0,0,1-.15-.16V5.89h4.42a.15.15,0,0,1,.15.15.15.15,0,0,1-.15.15H14.37v6.63A.16.16,0,0,1,14.22,13Z"/><path class="cls-1" d="M11.47,6.19a.1.1,0,0,1-.07,0,.16.16,0,0,1-.07-.2l1.1-2.14a.49.49,0,0,1,.43-.26h0a.48.48,0,0,1,.43.26L14.37,6a.15.15,0,0,1-.06.2.16.16,0,0,1-.21-.06L13,4a.15.15,0,0,0-.15-.09h0a.16.16,0,0,0-.15.09l-1.1,2.14A.16.16,0,0,1,11.47,6.19Z"/><path class="cls-1" d="M23,8H19a.68.68,0,0,1-.67-.68V3.05A.67.67,0,0,1,19,2.38H23a.67.67,0,0,1,.67.67V7.3A.68.68,0,0,1,23,8ZM19,2.68a.38.38,0,0,0-.37.37V7.3a.38.38,0,0,0,.37.37H23a.38.38,0,0,0,.37-.37V3.05A.38.38,0,0,0,23,2.68Z"/><path class="cls-1" d="M22.82,11.53H19.17a.15.15,0,0,1-.15-.15V7.85a.15.15,0,0,1,.15-.15h3.65a.15.15,0,0,1,.15.15v3.53A.15.15,0,0,1,22.82,11.53Zm-3.5-.31h3.35V8H19.32Z"/><path class="cls-2" d="M22.77,9.15H19.18A.16.16,0,0,1,19,9a.15.15,0,0,1,.15-.15h3.59a.15.15,0,0,1,.15.15A.15.15,0,0,1,22.77,9.15Z"/><path class="cls-2" d="M22.77,10.38H19.18a.16.16,0,0,1-.15-.16.15.15,0,0,1,.15-.15h3.59a.15.15,0,0,1,.15.15A.15.15,0,0,1,22.77,10.38Z"/><path class="cls-1" d="M18.28,23.65H7.47a.15.15,0,0,1-.15-.15V22.35A.65.65,0,0,1,8,21.7h9.81a.66.66,0,0,1,.66.65V23.5A.16.16,0,0,1,18.28,23.65Zm-10.66-.3H18.13v-1a.34.34,0,0,0-.35-.34H8a.35.35,0,0,0-.35.34Z"/><path class="cls-1" d="M11.52,21.93a.15.15,0,0,1-.15-.15V18.47a.14.14,0,0,1,.15-.15.15.15,0,0,1,.15.15v3.31A.15.15,0,0,1,11.52,21.93Z"/><path class="cls-1" d="M14.25,21.93a.15.15,0,0,1-.15-.15V18.47a.15.15,0,0,1,.15-.15.15.15,0,0,1,.16.15v3.31A.16.16,0,0,1,14.25,21.93Z"/><path class="cls-2" d="M23.45,3.93H18.5a.15.15,0,0,1-.15-.15.16.16,0,0,1,.15-.16h4.95a.15.15,0,0,1,.15.16A.15.15,0,0,1,23.45,3.93Z"/></svg>